<?xml version="1.0" encoding="UTF-8"?>
<svg xmlns="http://www.w3.org/2000/svg" xmlns:xlink="http://www.w3.org/1999/xlink" viewBox="0 0 288 90" version="1.1">
<g id="surface1">
<path style=" stroke:none;fill-rule:nonzero;fill:rgb(11.399841%,11.399841%,10.598755%);fill-opacity:1;" d="M 95.941406 14.203125 L 113.433594 14.203125 L 113.433594 77.347656 L 95.941406 77.347656 Z M 95.941406 14.203125 "/>
<path style=" stroke:none;fill-rule:nonzero;fill:rgb(11.399841%,11.399841%,10.598755%);fill-opacity:1;" d="M 122.613281 77.347656 L 122.613281 14.203125 L 170.714844 14.203125 L 170.714844 26.445313 L 140.101563 26.445313 L 140.101563 39.472656 L 168.261719 39.472656 L 168.261719 51.71875 L 140.101563 51.71875 L 140.101563 65.097656 L 170.714844 65.097656 L 170.714844 77.347656 Z M 122.613281 77.347656 "/>
<path style=" stroke:none;fill-rule:nonzero;fill:rgb(11.399841%,11.399841%,10.598755%);fill-opacity:1;" d="M 180.515625 77.347656 L 180.515625 14.203125 L 228.605469 14.203125 L 228.605469 26.445313 L 198 26.445313 L 198 39.472656 L 226.152344 39.472656 L 226.152344 51.71875 L 198 51.71875 L 198 65.097656 L 228.605469 65.097656 L 228.605469 77.347656 Z M 180.515625 77.347656 "/>
<path style=" stroke:none;fill-rule:nonzero;fill:rgb(11.399841%,11.399841%,10.598755%);fill-opacity:1;" d="M 238.398438 77.347656 L 238.398438 14.203125 L 286.5 14.203125 L 286.5 26.445313 L 255.898438 26.445313 L 255.898438 39.472656 L 284.050781 39.472656 L 284.050781 51.71875 L 255.898438 51.71875 L 255.898438 65.097656 L 286.5 65.097656 L 286.5 77.347656 Z M 238.398438 77.347656 "/>
<path style=" stroke:none;fill-rule:nonzero;fill:rgb(11.399841%,11.399841%,10.598755%);fill-opacity:1;" d="M 40.5 52.109375 C 40.265625 56.570313 40.210938 60.695313 39.882813 65.167969 C 41.644531 65.328125 43.636719 65.480469 45.519531 65.207031 L 44.957031 52.746094 L 44.859375 52.152344 C 43.425781 52.210938 42.070313 52.265625 40.5 52.109375 M 29.476563 39.589844 C 27.304688 40.679688 24.105469 42.328125 24.457031 45.308594 C 24.925781 46.933594 26.6875 47.988281 28.082031 48.65625 C 35.789063 52.050781 46.023438 52.167969 54.164063 49.632813 C 56.171875 48.859375 58.867188 47.734375 59.238281 45.273438 C 59.214844 43.242188 57.0625 41.960938 55.515625 41.179688 L 55.515625 41.085938 C 56.054688 40.871094 56.675781 40.679688 57.234375 40.621094 L 57.234375 40.566406 C 54.507813 40.078125 51.878906 39.367188 49.234375 38.667969 C 49.746094 39.824219 50.113281 41.046875 50.535156 42.25 C 51.328125 42 52.144531 41.804688 53 41.6875 C 54.390625 42.230469 56.386719 43.007813 56.582031 44.746094 C 56.738281 46.375 54.957031 47.167969 53.828125 47.828125 C 47.859375 50 41.144531 50.214844 34.917969 48.5625 C 33.199219 48.019531 30.714844 47.324219 30.503906 45.132813 C 31.722656 42.25 34.878906 41.652344 37.515625 40.953125 C 36.160156 40.078125 34.785156 39.304688 33.46875 38.335938 C 32.050781 38.414063 30.753906 39.035156 29.476563 39.589844 M 42.664063 22.199219 L 41.894531 24.675781 L 38.019531 35.777344 C 38.988281 35.878906 40.191406 35.777344 41.144531 35.878906 L 41.144531 35.96875 L 40.578125 48.523438 L 40.675781 48.65625 C 41.914063 48.777344 43.460938 48.839844 44.726563 48.625 L 44.726563 48.425781 L 44.21875 36.25 L 44.296875 35.835938 L 47.707031 35.777344 C 46.003906 31.285156 44.355469 26.746094 42.765625 22.199219 Z M 40.867188 16.621094 C 43.71875 14.675781 46.273438 17.390625 48.484375 18.945313 C 57.027344 25.820313 65.085938 33.6875 71.226563 42.574219 C 72.003906 43.722656 72.351563 45.503906 71.65625 46.800781 C 70.0625 49.457031 67.917969 51.882813 65.878906 54.339844 L 65.878906 54.476563 C 60.800781 59.882813 55.4375 65.4375 49.644531 70.015625 C 46.816406 71.738281 44.21875 75.496094 40.578125 73.167969 C 32.28125 67.105469 24.34375 59.570313 17.613281 51.488281 C 16.472656 49.710938 14.691406 48.253906 13.898438 46.238281 C 12.789063 43.511719 15.234375 41.550781 16.632813 39.496094 C 23.492188 31.035156 32.011719 22.734375 40.867188 16.621094 M 48.015625 8.539063 L 44.859375 4.0625 C 44.472656 3.828125 43.988281 3.4375 43.5625 3.324219 C 42.628906 2.917969 41.625 3.40625 40.867188 3.984375 L 35.152344 11.425781 C 25.988281 22.773438 15.140625 33.375 3.300781 41.5 C 2.367188 42.230469 0.972656 42.945313 0.683594 44.148438 C 0.375 45.234375 0.9375 46.128906 1.609375 46.800781 C 11.089844 53.332031 20.152344 61.082031 28.21875 69.917969 C 29.648438 71.421875 30.8125 72.921875 32.210938 74.332031 C 34.570313 77.472656 37.34375 80.632813 39.511719 84.003906 C 40.191406 84.714844 40.308594 85.882813 41.371094 86.230469 C 42.203125 86.515625 43.230469 86.714844 44.023438 86.230469 L 44.816406 85.4375 C 54.621094 71.542969 67.0625 59.066406 80.957031 48.992188 C 82.347656 47.75 85.003906 47.289063 85.042969 44.980469 C 84.945313 43.917969 84.324219 42.871094 83.410156 42.289063 L 83.183594 42.25 C 76.03125 37.386719 69.371094 31.886719 63.09375 25.644531 L 56.15625 18.398438 C 53.34375 15.28125 50.613281 11.832031 48.015625 8.539063 M 39.839844 14.914063 C 42.628906 12.742188 46.136719 14.542969 48.484375 16.539063 C 50.941406 18.417969 53.5 20.546875 55.746094 22.722656 L 56.15625 22.957031 C 62.375 28.726563 68.152344 35.140625 72.898438 41.921875 C 73.667969 43.101563 74.347656 44.4375 73.917969 46.007813 C 72.335938 49.960938 69.121094 53.117188 66.308594 56.570313 C 60.222656 63.117188 53.808594 69.453125 46.625 74.507813 C 45.171875 75.535156 43.210938 76.484375 41.46875 75.667969 C 36.183594 72.902344 31.722656 68.367188 27.097656 64.234375 C 21.726563 59.257813 16.339844 53.464844 12.273438 47.402344 C 11.667969 46.550781 11.496094 45.503906 11.515625 44.382813 C 12.039063 42.289063 13.472656 40.566406 14.828125 38.800781 C 19.636719 32.675781 25.523438 26.867188 31.46875 21.558594 C 31.605469 21.421875 31.859375 21.132813 32.074219 20.996094 C 34.628906 18.789063 37.164063 16.832031 39.839844 14.914063 "/>
<path style=" stroke:none;fill-rule:evenodd;fill:rgb(11.399841%,11.399841%,10.598755%);fill-opacity:1;" d="M 57.070313 80.261719 L 56.46875 80.261719 L 56.46875 79.496094 L 56.945313 79.496094 C 57.203125 79.496094 57.550781 79.523438 57.550781 79.851563 C 57.550781 80.199219 57.371094 80.261719 57.070313 80.261719 M 58.269531 79.917969 C 58.269531 79.195313 57.789063 78.96875 56.972656 78.96875 L 55.792969 78.96875 L 55.792969 82.125 L 56.46875 82.125 L 56.46875 80.796875 L 56.789063 80.796875 L 57.515625 82.125 L 58.320313 82.125 L 57.507813 80.738281 C 57.933594 80.703125 58.269531 80.496094 58.269531 79.917969 M 56.957031 82.804688 L 56.957031 82.796875 C 55.792969 82.804688 54.855469 81.902344 54.855469 80.542969 C 54.855469 79.195313 55.792969 78.296875 56.957031 78.296875 C 58.09375 78.296875 59.058594 79.195313 59.058594 80.542969 C 59.058594 81.902344 58.09375 82.804688 56.957031 82.804688 M 56.957031 77.613281 C 55.398438 77.613281 54.011719 78.695313 54.011719 80.542969 C 54.011719 82.402344 55.398438 83.484375 56.957031 83.484375 C 58.503906 83.484375 59.894531 82.402344 59.894531 80.542969 C 59.894531 78.695313 58.503906 77.613281 56.957031 77.613281 "/>
</g>
</svg>
