<svg id="Layer_1" data-name="Layer 1" xmlns="http://www.w3.org/2000/svg" viewBox="0 0 313.52 67.76"><defs><style>.cls-1{fill:#0b5172;}</style></defs><title>5</title><path class="cls-1" d="M21.46,19.11c0,1.61.07,3.22.1,4.83l-.17.28a23.38,23.38,0,0,1-8.26,1.54,17.16,17.16,0,0,1-4.69-.59,11.07,11.07,0,0,1-6-3.89A13,13,0,0,1,0,13.2,15.44,15.44,0,0,1,1.79,5.81C4.55,1.12,8.93,0,12.92,0a17.56,17.56,0,0,1,7.45,1.61l.18.21c-.28,2.1-.35,2.66-.53,4.83l-.28.11a9.72,9.72,0,0,0-5.88-2.14c-4.41,0-7.38,3-7.38,8.54,0,2.63,1,7.81,6.4,7.81a11.15,11.15,0,0,0,2.63-.39,50.06,50.06,0,0,0-.28-7.45l.17-.21,6-.11.18.21c0,1.79-.07,3.54-.07,5.29Z"/><path class="cls-1" d="M43.12,19.11l-.24,5.22-.18.21a14.93,14.93,0,0,1-6,1.22c-8.54,0-12.64-5.91-12.64-12.63C24.08,7,27.23,0,36.3,0a16.84,16.84,0,0,1,6.47,1.3l.14.17L42.6,6.3l-.32.07a7.52,7.52,0,0,0-4.93-1.68c-5.71,0-6.76,5.29-6.76,8.3,0,5,2.8,7.94,6.79,7.94a8.57,8.57,0,0,0,5.5-2Z"/><path class="cls-1" d="M62.13,20.76,61.88,25l-.28.21H46.2L46,25.1c.11-3.68.18-5.88.18-10.29,0-9.38-.07-10.68-.28-14.07l.21-.21H61.5l.17.14-.24,4.06-.18.21c-4.23-.11-5-.11-9-.11V10.4l8.47-.14.17.21-.21,3.95-.24.21H52.26l.07,6.13c4.48,0,5.46,0,9.59-.25Z"/><path class="cls-1" d="M95.94.77c-2.7,3-3.68,4.27-8,10.4A124.1,124.1,0,0,0,97,24.75l-.14.38-7.1.25-.25-.18c-1.33-2.45-2.06-3.85-5.11-8.75C83.09,14.32,82.88,14,82,12.78c0,6.09.07,7.35.28,12.25l-.17.21c-2.49,0-3.33,0-6.06.1l-.18-.21c.07-3.43.14-5.32.14-9,0-9-.14-11.59-.35-15.4l.18-.21c2.87,0,3.36,0,6.12-.11l.18.21L82,11.38A126.23,126.23,0,0,0,89,.74l.28-.21c3.08,0,3.68,0,6.58-.11Z"/><path class="cls-1" d="M113.89,17.4c0,3.29,0,4.16.25,7.59l-.18.25c-2.27,0-3,0-5.56.1l-.21-.24V23.8a7.25,7.25,0,0,1-4.87,1.86,5.92,5.92,0,0,1-6.13-6.16,5.61,5.61,0,0,1,2.63-4.8c2.1-1.29,4.06-1.68,8.26-2.24a2.2,2.2,0,0,0-.45-1.5c-.46-.46-1-.67-2.28-.67a16.26,16.26,0,0,0-5.85,1.4l-.28-.14.18-3.81.21-.28a21.13,21.13,0,0,1,6.86-1.16c4.48,0,5.88,1.4,6.58,2.52.91,1.47.91,2.84.88,6Zm-5.74-1.26c-2.38.31-5.15.7-5.15,3a2.06,2.06,0,0,0,2.31,2.13,5.65,5.65,0,0,0,2.84-.91Z"/><path class="cls-1" d="M134.93,25.2c-2.8,0-3.4,0-5.71.11L129,25.1c0-1.19,0-2.42,0-3.61s0-6.12-.11-7.28-.28-3.32-2.21-3.32A4.77,4.77,0,0,0,124,12c0,6.27.07,7.63.28,13l-.21.21c-2.8,0-3.33,0-5.85.11l-.21-.21c0-2.24.07-4.48.07-6.72a97.46,97.46,0,0,0-.49-11l.21-.24c2.63-.35,3.22-.46,5.92-1l.35.25L124,8.33c1.61-.94,3.47-2.06,5.6-2.06A4.8,4.8,0,0,1,134,8.37c.88,1.43.91,3,1,6.4V17.5c.07,3.43.07,4.41.24,7.49Z"/><path class="cls-1" d="M156.07,25.2c-2.8,0-3.4,0-5.71.11l-.21-.21c0-1.19,0-2.42,0-3.61s0-6.12-.11-7.28-.28-3.32-2.21-3.32A4.77,4.77,0,0,0,145.18,12c0,6.27.07,7.63.28,13l-.21.21c-2.8,0-3.33,0-5.85.11l-.21-.21c0-2.24.07-4.48.07-6.72a97.46,97.46,0,0,0-.49-11l.21-.24c2.63-.35,3.22-.46,5.92-1l.35.25-.07,1.92c1.61-.94,3.47-2.06,5.6-2.06a4.8,4.8,0,0,1,4.34,2.1c.88,1.43.91,3,.95,6.4V17.5c.07,3.43.07,4.41.24,7.49Z"/><path class="cls-1" d="M177.35,6.79q-.1,4.94-.11,9.87c0,4.55.07,5.88.25,8.37l-.21.21c-2.28,0-3.05,0-5.61.1l-.24-.21,0-1.57a7.78,7.78,0,0,1-5.18,2.1,6,6,0,0,1-4.58-1.86c-1.26-1.47-1.44-3.08-1.4-6.89V14.46c0-3.54,0-4.52-.25-7.46l.25-.21,5.77-.28.25.28-.07,7.07c0,.88,0,1.79,0,2.66,0,2.07,0,4.73,2.52,4.73a4.87,4.87,0,0,0,2.63-1.16c0-1.4,0-2,0-3,0-.56,0-6.16-.24-10.12l.24-.21,5.71-.28Z"/><path class="cls-1" d="M191.24,12.39a2.62,2.62,0,0,0-1.44-.49c-2.38,0-2.38,2.31-2.38,3.89,0,2.41.21,6.37.35,9.2l-.17.25c-2.8,0-3.36,0-5.95.1l-.21-.21c.07-2.9.1-5.77.1-8.64,0-4.87-.1-6.44-.31-9.07l.21-.21c2.55-.38,3.22-.49,5.81-1l.28.28-.11,3.22c1.12-2.59,2.73-3.39,4.17-3.39l.73,0,.21.25-1,5.7Z"/><path class="cls-1" d="M5.39,42.67c-.1,2.34-.17,5.11-.17,11.13,0,6.72.07,9.59.28,13.19l-.21.25c-1.54,0-2,0-3.89.1l-.21-.24c.07-2.14.14-4,.14-8.51,0-5.28,0-10.53-.25-15.78l.18-.28c1.54,0,2.1,0,3.89-.11Z"/><path class="cls-1" d="M26.5,64.37c-.11,1.19-.11,1.43-.18,2.62l-.24.25c-6.83,0-7.91,0-14.57.1l-.17-.24c.1-2.77.21-4.66.21-11.06,0-5.88,0-9.24-.25-13.27l.21-.24c6.9,0,8.27,0,14.71-.11l.21.25c-.11,1-.18,1.47-.25,2.73l-.21.24c-4.51-.14-6-.14-10.46-.17-.11,3.22-.11,4.23-.11,7.45,4.31,0,5.64,0,9.91-.07l.17.25a23.4,23.4,0,0,0-.17,2.69L25.1,56c-4.06-.11-4.94-.11-9.7-.11-.07,4.06,0,5,0,8.37,5.29,0,6.37,0,10.89-.18Z"/><path class="cls-1" d="M45.47,64.37c-.11,1.19-.11,1.43-.18,2.62l-.24.25c-6.83,0-7.91,0-14.57.1l-.17-.24c.1-2.77.21-4.66.21-11.06,0-5.88,0-9.24-.25-13.27l.21-.24c6.9,0,8.27,0,14.71-.11l.21.25c-.11,1-.18,1.47-.25,2.73l-.21.24c-4.51-.14-6-.14-10.46-.17-.11,3.22-.11,4.23-.11,7.45,4.31,0,5.64,0,9.91-.07l.17.25a23.4,23.4,0,0,0-.17,2.69l-.21.25c-4.06-.11-4.94-.11-9.7-.11-.07,4.06,0,5,0,8.37,5.29,0,6.37,0,10.89-.18Z"/><path class="cls-1" d="M64.44,64.37c-.11,1.19-.11,1.43-.18,2.62l-.24.25c-6.83,0-7.92,0-14.57.1l-.17-.24c.1-2.77.21-4.66.21-11.06,0-5.88,0-9.24-.25-13.27l.21-.24c6.9,0,8.27,0,14.71-.11l.21.25c-.11,1-.18,1.47-.25,2.73l-.21.24c-4.51-.14-6-.14-10.47-.17-.1,3.22-.1,4.23-.1,7.45,4.31,0,5.64,0,9.91-.07l.17.25a23.4,23.4,0,0,0-.17,2.69L63,56c-4.06-.11-4.94-.11-9.7-.11-.07,4.06,0,5,0,8.37,5.29,0,6.37,0,10.89-.18Z"/><path class="cls-1" d="M87.5,53.24c2.55,1.12,6,2.59,6,7.07,0,3.92-2.91,7.45-9,7.45a15.16,15.16,0,0,1-6.93-1.54L77.38,66c.14-1.23.18-1.89.28-3.22l.35-.14a10.39,10.39,0,0,0,6.16,2.06c3.61,0,5.11-1.85,5.11-4,0-2.45-2-3.4-4.3-4.27l-1.75-.77c-2.49-1.16-5.81-2.66-5.81-6.93a6.5,6.5,0,0,1,1.08-3.68C80.11,42.77,83,42,85.85,42a18.48,18.48,0,0,1,6.31,1.12l.17.28c-.14,1.33-.17,1.82-.28,3.08l-.28.14A11.54,11.54,0,0,0,86,45c-2.9,0-4.72,1.37-4.72,3.43a3.15,3.15,0,0,0,1.78,2.77,19.47,19.47,0,0,0,2.7,1.26Z"/><path class="cls-1" d="M105.31,64.47c-.1,1.16-.1,1.4-.14,2.42l-.17.21a9.79,9.79,0,0,1-2.63.31c-.84,0-3,0-4.13-1.82-.63-1-.63-1.85-.63-6l.07-7.7c-1.22,0-1.26,0-2.52.07L95,51.77c.07-1.12.07-1.4.07-2.52L95.3,49c.77,0,1.23,0,2.38,0,0-.74,0-1.51,0-2.24s-.07-1.33-.11-2l.18-.24c1.57-.39,2-.49,3.57-1l.24.17c-.1,2.31-.14,2.77-.14,5.32,1.47,0,1.89,0,3.89-.1l.17.21c-.07.91-.1,1.29-.1,2.48l-.18.21c-1.75,0-2-.07-3.81-.07l-.07,6.51c0,.42,0,2.42,0,2.91,0,2.55.32,3.36,2.07,3.36a4.8,4.8,0,0,0,1.68-.32Z"/><path class="cls-1" d="M123.72,49.14c-.07,2.66-.1,5.15-.1,8,0,4.31.1,6.9.17,8.4,0,.49,0,1,.07,1.47l-.14.21c-1.68,0-2,.07-3.57.14l-.21-.21,0-1.47a9,9,0,0,1-5.5,2,6.57,6.57,0,0,1-4-1.19c-2.24-1.82-2.24-4.8-2.27-7.53V56.77c-.07-5-.07-5.56-.18-7.45l.18-.25c1.64,0,2,0,3.6-.17l.21.24-.14,7.67c0,.94,0,1.64,0,3.32,0,1.47.11,4.62,3.64,4.62a7,7,0,0,0,4.38-1.82c0-1.89,0-3.5,0-5.53a72.6,72.6,0,0,0-.24-8.12l.21-.24c1.61,0,2,0,3.6-.14Z"/><path class="cls-1" d="M140.38,40c1.79-.31,2.14-.39,3.71-.74l.25.22c-.25,4.86-.28,13.54-.28,17,0,5.43.14,8,.28,10.43l-.18.25c-1.54,0-2,0-3.57.1l-.24-.21.07-1.29a7.42,7.42,0,0,1-4.83,1.75c-4.66,0-7.88-3.68-7.88-9a9.71,9.71,0,0,1,3.08-7.52c2.56-2.31,5.88-2.42,7.7-2.42.74,0,1.09,0,2,.07a78,78,0,0,0-.31-8.47Zm0,11.52c-.6,0-1-.11-1.75-.11a7.3,7.3,0,0,0-5.08,1.65,7.24,7.24,0,0,0-2,5.49,6.61,6.61,0,0,0,1.3,4.31,4.61,4.61,0,0,0,3.6,1.57,5.8,5.8,0,0,0,3.92-1.54C140.45,58.35,140.45,57.3,140.42,51.56Z"/><path class="cls-1" d="M163.59,63a30.69,30.69,0,0,0-.28,3.11l-.21.25a11.53,11.53,0,0,1-5.6,1.33c-5.74,0-9.35-3.29-9.35-9.38,0-6.51,3.92-9.7,8.51-9.7A7.32,7.32,0,0,1,162.4,51c2,2.38,1.92,5.84,1.89,7.38l-.25.21c-5.46,0-6.4,0-12.14,0A6.81,6.81,0,0,0,153.23,63a5.68,5.68,0,0,0,4.51,1.89,9.15,9.15,0,0,0,3-.53,8.75,8.75,0,0,0,2.52-1.54Zm-3.26-9.14a3.92,3.92,0,0,0-3.81-2.73c-2,0-4.27,1.33-4.62,4.83,4.23,0,5.56,0,8.78,0A7.52,7.52,0,0,0,160.33,53.83Z"/><path class="cls-1" d="M183.54,67.2c-1.68,0-1.89,0-3.5.14l-.25-.24c0-.39,0-.77,0-1.16,0-1.71,0-3.43,0-5.14,0-5.39,0-5.74-.21-6.48a3.05,3.05,0,0,0-3.15-2.66,7.67,7.67,0,0,0-4.65,2c0,6.09,0,9.28.28,13.37l-.21.21c-1.72,0-2,0-3.68.14l-.17-.24c0-2,.1-3.85.1-6.44,0-5.6-.24-8.58-.42-10.92l.21-.25c1.75-.31,2.07-.38,3.71-.7l.25.25,0,1.82A10.6,10.6,0,0,1,178,48.69a6.12,6.12,0,0,1,2.91.66,4.78,4.78,0,0,1,2,2.28c.45,1,.49,2.1.52,4.27V60c.11,4.1.14,5.67.25,7Z"/><path class="cls-1" d="M196.45,64.47c-.1,1.16-.1,1.4-.14,2.42l-.17.21a9.79,9.79,0,0,1-2.63.31c-.84,0-3,0-4.13-1.82-.63-1-.63-1.85-.63-6l.07-7.7c-1.22,0-1.26,0-2.52.07l-.14-.21c.07-1.12.07-1.4.07-2.52l.21-.21c.77,0,1.23,0,2.38,0,0-.74,0-1.51,0-2.24s-.07-1.33-.11-2l.18-.24c1.57-.39,2-.49,3.57-1l.24.17c-.1,2.31-.14,2.77-.14,5.32,1.47,0,1.89,0,3.89-.1l.17.21c-.07.91-.1,1.29-.1,2.48l-.18.21c-1.75,0-2-.07-3.81-.07l-.07,6.51c0,.42,0,2.42,0,2.91,0,2.55.32,3.36,2.07,3.36a4.8,4.8,0,0,0,1.68-.32Z"/><path class="cls-1" d="M210,67.34l-.17-.24c.07-1.68.1-3.29.1-6.48,0-1.5,0-8.82,0-10.46,0-3.68-.11-5.57-.25-7.39l.18-.24,4.69-.07c.7,0,1.78,0,2.73,0,2.06,0,4.27.07,6,1.09a5.29,5.29,0,0,1,2.76,4.79c0,1.23-.35,4.73-5.21,5.92a8.26,8.26,0,0,1,3.22.63,5.44,5.44,0,0,1,3.32,5.28,6.78,6.78,0,0,1-4.79,6.51c-1.86.67-3.71.67-6.48.67Zm3.78-14.24c3.15,0,5.57,0,7-1.16a4.08,4.08,0,0,0,1.43-3,3.66,3.66,0,0,0-1-2.49c-1.22-1.19-3.39-1.19-4.2-1.19-1.12,0-2.2,0-3.29.11Zm0,2.94c0,4,0,4.58.14,8.4h.67c2.62,0,4.76,0,6.12-.53a4,4,0,0,0,2.63-3.85c0-4.09-4.52-4.13-6.2-4.13-.31,0-.63,0-2.52.07Z"/><path class="cls-1" d="M239.64,52.68a3.57,3.57,0,0,0-1.4-.32,2.63,2.63,0,0,0-1.47.46c-1.43,1-1.43,2.55-1.43,6.19,0,4,.1,6,.24,8l-.17.25c-1.65,0-2,0-3.71.1l-.18-.21c0-2.66.07-5.07.07-8.33a75.43,75.43,0,0,0-.31-9.06l.21-.25c1.33-.24,2.17-.42,3.64-.7l.21.21-.18,3c.42-1.12,1.3-3.36,4.27-3.36a3.63,3.63,0,0,1,1,.1l.14.21c-.35,1.68-.42,2-.66,3.57Z"/><path class="cls-1" d="M256.51,60a67.19,67.19,0,0,0,.21,7l-.17.17c-1.65,0-1.93.07-3.54.14l-.14-.21,0-1.26A7.49,7.49,0,0,1,248,67.66a5.63,5.63,0,0,1-5.95-5.85c0-4.69,3.92-6.19,10.23-6.93l.59-.07a4.45,4.45,0,0,0-.31-2.17c-.35-.63-1.16-1.29-2.91-1.29a12.51,12.51,0,0,0-5.32,1.33l-.28-.18c.07-1.61.07-1.82.11-2.55l.21-.21a18,18,0,0,1,6-1.16c2.59,0,5.11.88,5.85,3.61a23.85,23.85,0,0,1,.24,4.37Zm-3.92-2.56c-3.53.53-6.83,1-6.83,4.13a3.09,3.09,0,0,0,3.33,3.19,5.49,5.49,0,0,0,3.82-1.54V57.4Z"/><path class="cls-1" d="M276.88,67.2c-1.68,0-1.89,0-3.5.14l-.24-.24c0-.39,0-.77,0-1.16,0-1.71,0-3.43,0-5.14,0-5.39,0-5.74-.21-6.48a3.07,3.07,0,0,0-3.16-2.66,7.7,7.7,0,0,0-4.65,2c0,6.09,0,9.28.28,13.37l-.21.21c-1.72,0-2,0-3.68.14l-.17-.24c0-2,.1-3.85.1-6.44,0-5.6-.24-8.58-.42-10.92l.21-.25c1.75-.31,2.07-.38,3.71-.7l.25.25,0,1.82a10.6,10.6,0,0,1,6.16-2.17,6.09,6.09,0,0,1,2.91.66,4.73,4.73,0,0,1,2,2.28c.46,1,.49,2.1.53,4.27V60c.1,4.1.14,5.67.24,7Z"/><path class="cls-1" d="M294.94,63.07c-.14,1.51-.17,1.68-.28,3.12l-.24.24a9.93,9.93,0,0,1-4.84,1.19c-5.28,0-8.71-3.81-8.71-9.27s3.36-9.77,8.78-9.77a11.59,11.59,0,0,1,4.8,1.12l.14.25c-.14,1.26-.17,1.71-.24,2.76l-.29.14a6.6,6.6,0,0,0-3.88-1.36c-2.91,0-5.46,2.24-5.46,6.72,0,4.76,2.69,6.47,5.43,6.47a6.91,6.91,0,0,0,4.51-1.75Z"/><path class="cls-1" d="M313.31,67.2c-1.68,0-1.89,0-3.5.14l-.24-.24,0-1.16c0-1.82,0-3.67,0-5.49l0-3.75a11.08,11.08,0,0,0-.17-2.38,3.06,3.06,0,0,0-3.15-2.66,8,8,0,0,0-4.69,2c0,6.09,0,9.28.24,13.37l-.17.21c-1.61,0-2,0-3.75.14l-.17-.24c.07-2.49.17-5.64.17-12.36,0-2.94,0-5.88-.07-8.82s-.17-4.09-.28-5.67l.18-.21c1.68-.28,2.24-.39,3.81-.74l.21.25c-.21,3.75-.21,7.53-.21,11.31a11.28,11.28,0,0,1,6.27-2.17,5.82,5.82,0,0,1,2.34.42A4.66,4.66,0,0,1,313,52.43a15.52,15.52,0,0,1,.25,3.47V60l0,1.65c.08,2.94.08,3.43.21,5.35Z"/></svg>